<svg width="196" height="74" viewBox="0 0 196 74" fill="none" xmlns="http://www.w3.org/2000/svg">
<path d="M196 10.6217H175.845V72.4025H164.207V10.6217H144.101V0.494986H196V10.6217ZM140.042 72.4025H100.671V0.494986H138.482V10.6217H112.308V30.9893H136.424V41.067H112.308V62.333H140.042V72.4025ZM85.26 72.4025H72.5363L39.0367 19.5478C38.1987 18.2324 37.493 16.8372 36.9297 15.3828H36.6357C36.897 16.9263 37.0277 20.2175 37.0277 25.2645V72.4025H25.7822V0.494986H39.3307L71.7115 52.1083C73.0753 54.2398 73.9573 55.718 74.3493 56.5183H74.5453C74.2187 54.6155 74.0553 51.3815 74.0553 46.8408V0.486816H85.26V72.4025ZM14.1855 66.743C14.1855 67.6327 14.0019 68.5137 13.6451 69.3356C13.2884 70.1575 12.7655 70.9042 12.1064 71.533C11.4473 72.1618 10.6649 72.6603 9.80389 73.0001C8.94291 73.3398 8.02026 73.5142 7.08867 73.5132C6.15705 73.5132 5.23457 73.3378 4.37398 72.997C3.51339 72.6563 2.73156 72.1569 2.0732 71.5273C1.41485 70.8978 0.892877 70.1505 0.537142 69.3282C0.181406 68.5058 -0.00111863 67.6246 5.15781e-06 66.7348C0.0022712 64.9407 0.750111 63.2208 2.07925 61.9529C3.40839 60.685 5.21012 59.9728 7.08867 59.9728C8.02026 59.9718 8.94291 60.1462 9.80389 60.4859C10.6649 60.8257 11.4473 61.3242 12.1064 61.953C12.7655 62.5818 13.2884 63.3284 13.6451 64.1504C14.0019 64.9723 14.1855 65.8533 14.1855 66.743Z" fill="#1C4859"/>
</svg>
