<svg width="170" height="186" viewBox="0 0 170 186" fill="none" xmlns="http://www.w3.org/2000/svg">
<path fill-rule="evenodd" clip-rule="evenodd" d="M169.933 50.0498L85 0.487976L0.0666656 50.0498V135.95L13.2117 143.62L40.0899 132.749C43.7069 131.284 46.8043 128.773 48.9855 125.537C51.1668 122.302 52.3325 118.488 52.3333 114.586V47.2666H65.4V114.586C65.3991 121.091 63.456 127.448 59.8198 132.842C56.1835 138.236 51.0197 142.421 44.9899 144.862L27.4805 151.944L85 185.512L169.933 135.963V50.0498ZM78.4667 73.4C78.4667 66.469 81.22 59.8219 86.1209 54.9209C91.0219 50.02 97.669 47.2666 104.6 47.2666H119.849C133.072 47.2666 143.8 57.9813 143.8 71.2178V73.4H130.733V71.2178C130.733 69.7885 130.452 68.3731 129.905 67.0525C129.358 65.7319 128.556 64.532 127.545 63.5213C126.535 62.5106 125.335 61.7088 124.014 61.1618C122.694 60.6148 121.278 60.3333 119.849 60.3333H104.6C101.135 60.3333 97.811 61.71 95.3605 64.1605C92.91 66.6109 91.5333 69.9345 91.5333 73.4C91.5333 76.8655 92.91 80.189 95.3605 82.6395C97.811 85.09 101.135 86.4666 104.6 86.4666H117.667C124.598 86.4666 131.245 89.22 136.146 94.1209C141.047 99.0219 143.8 105.669 143.8 112.6C143.8 119.531 141.047 126.178 136.146 131.079C131.245 135.98 124.598 138.733 117.667 138.733H104.6C97.669 138.733 91.0219 135.98 86.1209 131.079C81.22 126.178 78.4667 119.531 78.4667 112.6H91.5333C91.5333 116.065 92.91 119.389 95.3605 121.84C97.811 124.29 101.135 125.667 104.6 125.667H117.667C121.132 125.667 124.456 124.29 126.906 121.84C129.357 119.389 130.733 116.065 130.733 112.6C130.733 109.134 129.357 105.811 126.906 103.36C124.456 100.91 121.132 99.5333 117.667 99.5333H104.6C97.669 99.5333 91.0219 96.78 86.1209 91.879C81.22 86.9781 78.4667 80.331 78.4667 73.4Z" fill="#1C4859"/>
</svg>
