<svg width="196" height="175" viewBox="0 0 196 175" fill="none" xmlns="http://www.w3.org/2000/svg">
<path d="M196 87.4602C196 74.4752 179.74 62.168 154.807 54.5404C160.565 29.1339 158.009 8.91319 146.739 2.43702C144.008 0.90757 140.917 0.137713 137.788 0.20752V9.10919C139.626 9.10919 141.104 9.47669 142.345 10.1545C147.776 13.2742 150.136 25.1322 148.299 40.3957C147.858 44.1524 147.139 48.105 146.257 52.1394C137.908 50.1274 129.434 48.6732 120.891 47.7865C115.802 40.7656 110.25 34.0922 104.272 27.8109C117.298 15.7079 129.523 9.07652 137.837 9.07652V0.166687C126.845 0.166687 112.463 7.99852 97.9183 21.5797C83.3817 8.08835 68.992 0.33002 58.0078 0.33002V9.23169C66.2807 9.23169 78.547 15.8304 91.5728 27.8517C85.9787 33.7317 80.3845 40.3957 75.068 47.7865C66.508 48.6634 58.0189 50.1315 49.6615 52.1802C48.7783 48.3565 48.0833 44.4917 47.579 40.5999C45.7007 25.3282 48.02 13.4702 53.4182 10.3179C54.6105 9.59919 56.1703 9.27252 58.0078 9.27252V0.370853C54.6595 0.370853 51.6133 1.08952 48.9837 2.60035C37.7545 9.07652 35.2392 29.2482 41.0293 54.5812C16.1782 62.2579 0 74.516 0 87.4602C0 100.445 16.2598 112.752 41.1927 120.372C35.4352 145.787 37.9913 166.007 49.2613 172.475C51.8583 173.994 54.8963 174.713 58.2447 174.713C69.237 174.713 83.6185 166.881 98.1633 153.3C112.7 166.799 127.082 174.55 138.074 174.55C141.227 174.616 144.341 173.844 147.098 172.312C158.327 165.844 160.843 145.672 155.052 120.339C179.822 112.712 196 100.404 196 87.4602ZM143.978 60.8124C142.427 66.1522 140.628 71.4172 138.588 76.5904C135.249 70.0959 131.583 63.7749 127.604 57.6519C133.28 58.493 138.752 59.5302 143.987 60.8124H143.978ZM125.685 103.361C122.694 108.583 119.481 113.675 116.057 118.624C104.07 119.681 92.0142 119.694 80.0252 118.665C73.1484 108.842 67.1344 98.4425 62.0503 87.5827C67.1266 76.6974 73.1151 66.2612 79.9517 56.386C91.9354 55.3274 103.988 55.311 115.975 56.337C119.291 61.09 122.533 66.1697 125.644 71.527C128.682 76.7537 131.443 82.062 133.958 87.4194C131.415 92.8417 128.655 98.1597 125.685 103.361ZM138.588 98.1667C140.744 103.516 142.59 108.873 144.101 114.067C138.874 115.349 133.354 116.427 127.645 117.26C131.608 111.082 135.26 104.709 138.588 98.1667ZM98.0817 140.797C94.3658 136.958 90.65 132.687 86.975 128.008C90.5683 128.171 94.2433 128.294 97.9592 128.294C101.716 128.294 105.432 128.212 109.066 128.008C105.473 132.687 101.757 136.958 98.0817 140.797ZM68.355 117.26C62.8486 116.463 57.382 115.411 51.9727 114.108C53.4508 108.955 55.2883 103.638 57.3627 98.33C59.0042 101.515 60.7273 104.716 62.6057 107.918C64.484 111.111 66.395 114.231 68.355 117.26ZM97.8775 34.1237C101.593 37.962 105.309 42.2332 108.984 46.9127C105.391 46.7494 101.716 46.6269 98 46.6269C94.2433 46.6269 90.5275 46.7085 86.8933 46.9127C90.4867 42.2332 94.2025 37.962 97.8775 34.1237ZM68.3142 57.66C64.3523 63.8253 60.7 70.1841 57.3708 76.7129C55.2737 71.5063 53.434 66.1997 51.8583 60.8124C57.085 59.571 62.6057 58.493 68.3142 57.66ZM32.1603 107.673C18.0157 101.646 8.869 93.7322 8.869 87.4602C8.869 81.1882 18.0157 73.2339 32.1603 67.2477C35.5903 65.7695 39.347 64.4465 43.2262 63.2134C45.5047 71.037 48.5018 79.1874 52.2095 87.5419C48.709 95.3997 45.7485 103.487 43.3487 111.748C39.5549 110.573 35.8209 109.213 32.1603 107.673ZM53.655 164.758C48.2242 161.654 45.864 149.78 47.7015 134.525C48.1425 130.768 48.8612 126.807 49.7432 122.773C57.5668 124.692 66.1173 126.17 75.1088 127.134C80.1981 134.155 85.7502 140.828 91.728 147.11C78.7022 159.213 66.4767 165.844 58.163 165.844C56.5945 165.861 55.0461 165.491 53.655 164.766V164.758ZM148.421 134.321C150.299 149.584 147.98 161.45 142.582 164.603C141.389 165.321 139.83 165.64 137.992 165.64C129.719 165.64 117.453 159.049 104.427 147.02C110.38 140.765 115.895 134.107 120.932 127.093C129.492 126.216 137.981 124.748 146.339 122.699C147.261 126.734 147.972 130.605 148.421 134.321ZM163.799 107.673C160.369 109.151 156.612 110.474 152.733 111.707C150.291 103.404 147.29 95.276 143.75 87.3785C147.425 79.073 150.373 70.9635 152.611 63.1725C156.416 64.3511 160.164 65.711 163.84 67.2477C177.984 73.2747 187.131 81.1882 187.131 87.4602C187.09 93.7322 177.943 101.687 163.799 107.673Z" fill="#1C4859"/>
<path d="M97.9592 105.721C102.802 105.721 107.447 103.797 110.871 100.372C114.296 96.9479 116.22 92.3032 116.22 87.4602C116.22 82.6172 114.296 77.9725 110.871 74.5479C107.447 71.1234 102.802 69.1995 97.9592 69.1995C93.1161 69.1995 88.4715 71.1234 85.0469 74.5479C81.6224 77.9725 79.6985 82.6172 79.6985 87.4602C79.6985 92.3032 81.6224 96.9479 85.0469 100.372C88.4715 103.797 93.1161 105.721 97.9592 105.721Z" fill="#1C4859"/>
</svg>
